<?xml version="1.0" encoding="UTF-8"?>
<svg width="43px" height="22px" viewBox="0 0 43 22" version="1.1" xmlns="http://www.w3.org/2000/svg" xmlns:xlink="http://www.w3.org/1999/xlink">
    <title>Artboard</title>
    <g id="Artboard" stroke="none" stroke-width="1" fill="none" fill-rule="evenodd">
        <g id="Group" transform="translate(2.000000, 0.000000)" stroke="#1896D2" stroke-width="1.37">
            <path d="M35.6200001,19.1800001 L38.0024301,19.1800001 C38.5422101,19.1800001 39.7300001,18.4717101 39.7300001,17.4359901 L39.7300001,13.20132 C39.7300001,12.00257 37.5558101,8.22000003 31.5100001,8.22000003 C31.5100001,8.22000003 25.1545701,2.74000001 15.5467601,2.74000001 C12.9876,2.74000001 9.37902003,2.75644001 6.16500002,4.11000001 L1.37,4.11000001 L3.24690001,6.01704002 C1.32342,7.45691003 0,9.48177003 0,12.33 C0,13.71507 0.600060002,19.2224701 2.74000001,19.1800001" id="Stroke-509" stroke-linecap="round" stroke-linejoin="round"></path>
            <path d="M35.6200001,17.8100001 C35.6200001,20.0800901 33.7800901,21.9200001 31.5100001,21.9200001 C29.2399101,21.9200001 27.4000001,20.0800901 27.4000001,17.8100001 C27.4000001,15.5399101 29.2399101,13.7 31.5100001,13.7 C33.7800901,13.7 35.6200001,15.5399101 35.6200001,17.8100001 L35.6200001,17.8100001 Z" id="Stroke-511" stroke-linecap="round" stroke-linejoin="round"></path>
            <path d="M10.96,17.8100001 C10.96,20.0800901 9.12009003,21.9200001 6.85000002,21.9200001 C4.57991002,21.9200001 2.74000001,20.0800901 2.74000001,17.8100001 C2.74000001,15.5399101 4.57991002,13.7 6.85000002,13.7 C9.12009003,13.7 10.96,15.5399101 10.96,17.8100001 L10.96,17.8100001 Z" id="Stroke-513" stroke-linecap="round" stroke-linejoin="round"></path>
            <polyline id="Stroke-507" stroke-linecap="round" stroke-linejoin="round" points="26.0300001 10.9601222 17.8100001 10.9601222 17.8100001 6.85000002"></polyline>
            <line x1="10.96" y1="19.1800001" x2="27.4000001" y2="19.1800001" id="Stroke-508" stroke-linecap="round" stroke-linejoin="round"></line>
            <path d="M17.1250001,0.685000002 L15.7550001,0.685000002 L15.7550001,2.19199988 L17.1250001,2.19199988 L17.1250001,0.685000002 Z" id="Rectangle" fill="#1896D2"></path>
        </g>
    </g>
</svg>